<svg width="214" height="182" viewBox="0 0 214 182" fill="none" xmlns="http://www.w3.org/2000/svg">
<g clip-path="url(#clip0_5765_58698)">
<path d="M106.847 103.845L105.75 103.803C91.9256 103.486 78.7785 97.9337 69.1241 88.3348C59.4697 78.7359 54.0754 65.8535 54.0965 52.4461C54.0965 24.1155 77.8291 1.06299 106.995 1.06299C136.16 1.06299 159.904 24.1155 159.904 52.4461C159.904 63.8794 155.688 75.1957 147.377 86.0868C141.989 93.035 135.626 99.2197 128.474 104.462C126.5 105.934 124.455 107.327 122.411 108.608C117.488 111.687 112.277 114.308 106.847 116.437V103.845Z" fill="#148783"/>
<path d="M106.995 2.12613C120.743 2.15287 133.919 7.46573 143.632 16.8992C153.345 26.3327 158.803 39.1165 158.807 52.4462C158.807 63.6456 154.663 74.7705 146.494 85.4543C141.171 92.3239 134.882 98.4373 127.811 103.617C125.859 105.068 123.841 106.45 121.813 107.715C117.409 110.474 112.769 112.86 107.943 114.848V104.839V102.793L105.799 102.745C92.2561 102.441 79.3745 97.0051 69.915 87.6031C60.4555 78.2011 55.1706 65.5807 55.1929 52.4462C55.1929 24.7003 78.4321 2.12613 106.995 2.12613ZM106.995 0C92.7724 0.0220439 79.1314 5.4743 69.0251 15.1763C58.9188 24.8783 53.1605 38.0492 52.9969 51.8375C52.8332 65.6257 58.2775 78.9217 68.1509 88.8465C78.0243 98.7714 91.5322 104.527 105.75 104.866V118C111.788 115.749 117.569 112.899 123.003 109.495C125.108 108.184 127.155 106.786 129.143 105.302C136.371 99.9865 142.804 93.7257 148.259 86.6981C155.896 76.7159 161 65.0807 161 52.4462C161.007 45.5643 159.615 38.7485 156.904 32.3881C154.193 26.0278 150.217 20.2474 145.202 15.3772C140.187 10.507 134.232 6.64228 127.676 4.00384C121.12 1.3654 114.093 0.00488389 106.995 0V0Z" fill="white"/>
<path fill-rule="evenodd" clip-rule="evenodd" d="M107 22.3137C89.863 22.3137 75.9706 35.783 75.9706 52.3983C75.9706 69.0137 89.863 82.483 107 82.483C124.137 82.483 138.029 69.0137 138.029 52.3983C138.029 35.783 124.137 22.3137 107 22.3137ZM73.2295 52.3983C73.2295 34.3153 88.3491 19.656 107 19.656C125.651 19.656 140.771 34.3153 140.771 52.3983C140.771 70.4814 125.651 85.1407 107 85.1407C88.3491 85.1407 73.2295 70.4814 73.2295 52.3983Z" fill="white"/>
<path d="M122.74 40.3962C119.595 36.5177 115.045 33.9462 110.015 33.2046V21.6172L119.697 16.3604C124.555 17.9608 129.039 20.4792 132.887 23.7699C132.953 27.3808 133.015 30.9952 133.074 34.6131L122.74 40.3962Z" fill="white"/>
<path d="M119.801 17.5405C124.195 19.0514 128.264 21.3363 131.802 24.2803C131.856 27.5262 131.911 30.7738 131.966 34.0232L122.992 39.0515C119.922 35.5787 115.738 33.2054 111.112 32.3117V22.2392L119.801 17.5405ZM119.582 15.223L108.919 20.9954V34.1455C111.606 34.4083 114.203 35.2266 116.536 36.5451C118.869 37.8636 120.884 39.6517 122.443 41.7889L134.181 35.2192C134.115 31.2433 134.048 27.2675 133.978 23.2916L133.951 23.2597C129.797 19.6419 124.913 16.8998 119.609 15.207L119.582 15.223Z" fill="white"/>
<path d="M125.607 59.5582C127.458 55.0229 127.486 49.9787 125.683 45.4248L136.072 39.6045L145.529 45.0367C146.047 47.5495 146.297 50.1072 146.275 52.6695C146.259 55.1065 146 57.5363 145.502 59.9249L135.963 65.3785L125.607 59.5582Z" fill="white"/>
<path d="M136.067 40.8375L144.553 45.7117C144.989 48.0065 145.2 50.3361 145.184 52.6694C145.17 54.8794 144.95 57.0837 144.526 59.2551L142.481 60.4192L139.641 62.0138L138.188 62.8483L135.963 64.1133L126.966 59.0691C128.467 54.8016 128.483 50.1745 127.01 45.8977L136.05 40.8375M136.05 38.3712L124.302 44.9675C125.382 47.3389 125.933 49.9049 125.919 52.4972C125.905 55.0896 125.326 57.6497 124.22 60.0099L135.968 66.5902L140.749 63.8635L146.472 60.5946C147.661 55.2425 147.672 49.7075 146.505 44.351L136.089 38.3606L136.05 38.3712Z" fill="white"/>
<path d="M110.015 83.1634V71.5813C114.978 70.8542 119.478 68.3463 122.624 64.5544L132.986 70.3535L132.882 75.1372L132.756 81.1542C128.944 84.3775 124.522 86.8509 119.735 88.4362L110.015 83.1634Z" fill="white"/>
<path d="M122.849 65.91L131.856 70.9489L131.818 72.5435L131.763 75.0948C131.763 75.8337 131.725 77.0509 131.698 78.284C131.698 79.1185 131.665 79.9583 131.648 80.6493C129.94 82.0548 128.105 83.3089 126.166 84.3966C124.14 85.542 122.01 86.5029 119.801 87.2669L115.339 84.8378L111.112 82.5416V72.4744C115.663 71.5998 119.79 69.2922 122.849 65.91M122.301 63.1566C120.74 65.2484 118.741 66.9969 116.435 68.2875C114.129 69.5782 111.568 70.3818 108.919 70.6459V83.7907L119.604 89.595C124.858 87.9147 129.697 85.2004 133.819 81.622C133.852 80.1231 133.923 76.6416 133.956 75.1427C133.984 73.9308 134.038 71.4219 134.077 69.7264L122.317 63.146L122.301 63.1566Z" fill="white"/>
<path d="M94.3141 88.4523C89.5347 86.8769 85.1164 84.4164 81.3047 81.2075L81.1786 75.1852C81.1457 73.7979 81.1074 71.996 81.08 70.4014L91.4304 64.5918C94.5821 68.3726 99.0812 70.8704 104.04 71.5921V83.1635L94.3141 88.4523Z" fill="white"/>
<path d="M91.1892 65.9577C94.2653 69.3279 98.3994 71.6234 102.954 72.4903V82.5415L94.1825 87.2881C89.865 85.8048 85.8604 83.5753 82.3628 80.7077C82.3628 79.9955 82.3628 79.2194 82.3189 78.4434C82.2915 77.29 82.2696 76.1259 82.2477 75.1532C82.2477 73.952 82.1874 72.4318 82.1599 70.9967L91.1618 65.9577M91.71 63.2097L79.9725 69.7848C80.0054 71.5335 80.0493 73.6384 80.0822 75.2064C80.1206 77.1146 80.1809 79.7935 80.2192 81.6964C82.3168 83.5081 84.6066 85.0992 87.0501 86.443C89.3902 87.749 91.863 88.8177 94.4292 89.6322L105.147 83.8172V70.6512C102.493 70.3993 99.925 69.6061 97.6101 68.3236C95.2953 67.0411 93.2864 65.2983 91.7155 63.2097H91.71Z" fill="white"/>
<path d="M68.4873 59.9355C67.4777 55.0147 67.4684 49.9502 68.4599 45.026L74.0243 41.8368L77.9606 39.5725L88.333 45.3662C86.5013 49.9552 86.5288 55.0463 88.4097 59.6166L78.0702 65.3784L68.4873 59.9355Z" fill="white"/>
<path d="M77.9661 40.7898L86.9898 45.8447C85.4936 50.159 85.5168 54.8328 87.0556 59.1329L78.0757 64.1612L73.9421 61.8012L69.4467 59.2658C68.9646 56.7638 68.7497 54.2203 68.8053 51.6756C68.8548 49.6742 69.0693 47.6799 69.4467 45.7118L74.5835 42.7565L77.9716 40.8057M77.9716 38.3394C74.4794 40.3486 70.9762 42.3578 67.495 44.367C66.3481 49.7327 66.3593 55.2705 67.5279 60.6319L78.0812 66.6488L89.7967 60.0631C88.6772 57.6873 88.0923 55.1077 88.0809 52.4957C88.0696 49.8837 88.6321 47.2993 89.731 44.9145L77.9551 38.3235L77.9716 38.3394Z" fill="white"/>
<path d="M80.9594 34.5495C80.9594 34.5495 81.0306 30.3291 81.0416 29.7391C81.0416 28.4635 81.1183 25.3434 81.1457 23.7116C85.0023 20.4347 89.4912 17.9324 94.3524 16.3499L104.056 21.6173V33.1941C99.0174 33.9157 94.4537 36.477 91.2988 40.3538L80.9594 34.5495Z" fill="white"/>
<path d="M94.2428 17.5086L98.7273 19.9431L102.954 22.2446V32.2958C98.3255 33.1713 94.1331 35.5256 91.0467 38.9825L82.0558 33.9649C82.0558 33.4758 82.0558 32.9709 82.0558 32.4766C82.0558 31.4135 82.0887 30.3504 82.0997 29.787C82.0997 28.623 82.1709 25.9281 82.1983 24.2219C85.7462 21.2754 89.8313 18.9984 94.2428 17.5086M94.4676 15.1912C89.1336 16.8639 84.2241 19.6098 80.0603 23.2492C80.0603 24.6631 79.978 28.3306 79.9506 29.7445C79.9506 30.8767 79.8848 33.4652 79.8574 35.1767L91.5894 41.7412C93.1567 39.607 95.178 37.8237 97.5168 36.5115C99.8556 35.1994 102.458 34.389 105.147 34.1349V20.9955L94.4676 15.1912Z" fill="white"/>
</g>
<path d="M17.874 126.308C21.114 126.308 23.688 126.596 25.596 127.172C27.54 127.712 28.944 128.684 29.808 130.088C30.672 131.492 31.104 133.472 31.104 136.028C31.104 138.692 30.582 140.726 29.538 142.13C28.53 143.498 26.856 144.29 24.516 144.506V144.83C27.396 145.082 29.412 146.054 30.564 147.746C31.716 149.402 32.292 151.724 32.292 154.712C32.292 157.268 31.842 159.248 30.942 160.652C30.078 162.056 28.71 163.046 26.838 163.622C25.002 164.162 22.59 164.432 19.602 164.432C17.19 164.432 15.084 164.414 13.284 164.378C11.52 164.378 9.882 164.342 8.37 164.27C6.858 164.198 5.31 164.108 3.726 164L4.536 158.276C5.4 158.312 7.056 158.348 9.504 158.384C11.988 158.42 14.868 158.438 18.144 158.438C19.656 158.438 20.844 158.294 21.708 158.006C22.572 157.718 23.166 157.196 23.49 156.44C23.85 155.648 24.03 154.532 24.03 153.092C24.03 151.544 23.85 150.374 23.49 149.582C23.13 148.754 22.5 148.178 21.6 147.854C20.736 147.53 19.53 147.35 17.982 147.314H4.482V142.076H17.874C19.206 142.04 20.25 141.896 21.006 141.644C21.798 141.392 22.356 140.906 22.68 140.186C23.004 139.466 23.166 138.458 23.166 137.162C23.166 135.83 22.986 134.822 22.626 134.138C22.302 133.418 21.726 132.932 20.898 132.68C20.07 132.428 18.918 132.302 17.442 132.302C15.426 132.302 13.644 132.302 12.096 132.302C10.548 132.302 9.162 132.32 7.938 132.356C6.714 132.356 5.58 132.392 4.536 132.464L3.726 126.74C5.166 126.596 6.552 126.506 7.884 126.47C9.252 126.398 10.728 126.362 12.312 126.362C13.896 126.326 15.75 126.308 17.874 126.308ZM11.826 126.74V164H3.726V126.74H11.826ZM45.827 126.2L45.773 155.468C45.773 156.368 46.043 157.052 46.583 157.52C47.123 157.952 47.915 158.168 48.959 158.168H51.119L52.037 163.568C51.605 163.784 50.993 163.964 50.201 164.108C49.409 164.288 48.599 164.414 47.771 164.486C46.943 164.594 46.241 164.648 45.665 164.648C43.253 164.648 41.345 164.018 39.941 162.758C38.537 161.498 37.835 159.734 37.835 157.466V126.2H45.827ZM69.5938 136.622C71.8258 136.622 73.7158 136.928 75.2638 137.54C76.8118 138.116 77.9818 139.124 78.7738 140.564C79.6018 141.968 80.0158 143.912 80.0158 146.396V164H73.6438L72.5098 158.222L71.9698 157.412V146.342C71.9698 145.082 71.6638 144.164 71.0518 143.588C70.4758 143.012 69.3598 142.724 67.7038 142.724C66.3358 142.724 64.6258 142.778 62.5738 142.886C60.5218 142.958 58.4158 143.066 56.2558 143.21L55.4998 137.918C56.7958 137.666 58.2898 137.45 59.9818 137.27C61.6738 137.09 63.3658 136.946 65.0578 136.838C66.7498 136.694 68.2618 136.622 69.5938 136.622ZM76.7218 147.584L76.6678 152.066L64.7878 152.12C63.8158 152.12 63.1138 152.354 62.6818 152.822C62.2858 153.29 62.0878 153.92 62.0878 154.712V156.008C62.0878 156.908 62.3398 157.61 62.8438 158.114C63.3478 158.582 64.1578 158.816 65.2738 158.816C66.2098 158.816 67.2178 158.618 68.2978 158.222C69.4138 157.826 70.5118 157.268 71.5918 156.548C72.6718 155.828 73.6258 154.982 74.4538 154.01V157.466C74.1298 158.006 73.6438 158.69 72.9958 159.518C72.3838 160.31 71.5918 161.102 70.6198 161.894C69.6478 162.65 68.5138 163.298 67.2178 163.838C65.9218 164.378 64.4458 164.648 62.7898 164.648C61.1698 164.648 59.7118 164.36 58.4158 163.784C57.1198 163.208 56.0938 162.362 55.3378 161.246C54.5818 160.13 54.2038 158.744 54.2038 157.088V154.334C54.2038 152.21 54.9238 150.554 56.3638 149.366C57.8038 148.178 59.7838 147.584 62.3038 147.584H76.7218ZM104.873 136.622C109.913 136.622 112.433 139.088 112.433 144.02V164H104.441V146.504C104.441 145.316 104.225 144.506 103.793 144.074C103.361 143.606 102.623 143.372 101.579 143.372C100.427 143.372 99.2386 143.606 98.0146 144.074C96.7906 144.506 95.2786 145.19 93.4786 146.126L93.1006 141.644C95.0086 140.024 96.9526 138.782 98.9326 137.918C100.949 137.054 102.929 136.622 104.873 136.622ZM92.7226 137.324L93.6406 142.616L94.2886 143.318V164H86.2966V137.324H92.7226ZM135.522 136.622C139.05 136.622 141.57 137.702 143.082 139.862C144.63 141.986 145.404 145.514 145.404 150.446C145.404 152.498 145.206 154.388 144.81 156.116C144.45 157.844 143.784 159.356 142.812 160.652C141.876 161.912 140.562 162.902 138.87 163.622C137.178 164.306 134.982 164.648 132.282 164.648C131.346 164.648 130.266 164.594 129.042 164.486C127.818 164.414 126.558 164.288 125.262 164.108C124.002 163.964 122.796 163.766 121.644 163.514C120.492 163.226 119.502 162.902 118.674 162.542L125.046 157.952C125.73 158.168 126.486 158.366 127.314 158.546C128.142 158.69 128.988 158.798 129.852 158.87C130.716 158.906 131.472 158.906 132.12 158.87C133.344 158.834 134.316 158.582 135.036 158.114C135.792 157.61 136.332 156.764 136.656 155.576C136.98 154.352 137.142 152.66 137.142 150.5C137.142 148.52 136.998 146.99 136.71 145.91C136.458 144.794 135.972 144.02 135.252 143.588C134.568 143.12 133.596 142.886 132.336 142.886C131.148 142.886 130.068 143.138 129.096 143.642C128.124 144.146 127.044 144.812 125.856 145.64L125.262 141.86C126.198 140.852 127.206 139.952 128.286 139.16C129.366 138.368 130.518 137.756 131.742 137.324C132.966 136.856 134.226 136.622 135.522 136.622ZM126.666 126.2L126.72 134.84C126.72 136.064 126.648 137.252 126.504 138.404C126.396 139.52 126.18 140.618 125.856 141.698L126.612 142.4L126.666 162.92L118.674 162.542V126.2H126.666ZM164.885 136.622C167.117 136.622 169.007 136.928 170.555 137.54C172.103 138.116 173.273 139.124 174.065 140.564C174.893 141.968 175.307 143.912 175.307 146.396V164H168.935L167.801 158.222L167.261 157.412V146.342C167.261 145.082 166.955 144.164 166.343 143.588C165.767 143.012 164.651 142.724 162.995 142.724C161.627 142.724 159.917 142.778 157.865 142.886C155.813 142.958 153.707 143.066 151.547 143.21L150.791 137.918C152.087 137.666 153.581 137.45 155.273 137.27C156.965 137.09 158.657 136.946 160.349 136.838C162.041 136.694 163.553 136.622 164.885 136.622ZM172.013 147.584L171.959 152.066L160.079 152.12C159.107 152.12 158.405 152.354 157.973 152.822C157.577 153.29 157.379 153.92 157.379 154.712V156.008C157.379 156.908 157.631 157.61 158.135 158.114C158.639 158.582 159.449 158.816 160.565 158.816C161.501 158.816 162.509 158.618 163.589 158.222C164.705 157.826 165.803 157.268 166.883 156.548C167.963 155.828 168.917 154.982 169.745 154.01V157.466C169.421 158.006 168.935 158.69 168.287 159.518C167.675 160.31 166.883 161.102 165.911 161.894C164.939 162.65 163.805 163.298 162.509 163.838C161.213 164.378 159.737 164.648 158.081 164.648C156.461 164.648 155.003 164.36 153.707 163.784C152.411 163.208 151.385 162.362 150.629 161.246C149.873 160.13 149.495 158.744 149.495 157.088V154.334C149.495 152.21 150.215 150.554 151.655 149.366C153.095 148.178 155.075 147.584 157.595 147.584H172.013ZM189.634 126.2L189.58 155.468C189.58 156.368 189.85 157.052 190.39 157.52C190.93 157.952 191.722 158.168 192.766 158.168H194.926L195.844 163.568C195.412 163.784 194.8 163.964 194.008 164.108C193.216 164.288 192.406 164.414 191.578 164.486C190.75 164.594 190.048 164.648 189.472 164.648C187.06 164.648 185.152 164.018 183.748 162.758C182.344 161.498 181.642 159.734 181.642 157.466V126.2H189.634ZM207.352 126.2L207.298 155.468C207.298 156.368 207.568 157.052 208.108 157.52C208.648 157.952 209.44 158.168 210.484 158.168H212.644L213.562 163.568C213.13 163.784 212.518 163.964 211.726 164.108C210.934 164.288 210.124 164.414 209.296 164.486C208.468 164.594 207.766 164.648 207.19 164.648C204.778 164.648 202.87 164.018 201.466 162.758C200.062 161.498 199.36 159.734 199.36 157.466V126.2H207.352Z" fill="white"/>
<defs>
<clipPath id="clip0_5765_58698">
<rect width="108" height="118" fill="white" transform="translate(53)"/>
</clipPath>
</defs>
</svg>
